<?xml version="1.0" encoding="UTF-8"?>
<svg version="1.1" xmlns="http://www.w3.org/2000/svg" width="128" height="128">
<path d="M0 0 C42.24 0 84.48 0 128 0 C128 42.24 128 84.48 128 128 C85.76 128 43.52 128 0 128 C0 85.76 0 43.52 0 0 Z " fill="#A41909" transform="translate(0,0)"/>
<path d="M0 0 C0 0.66 0 1.32 0 2 C-6.93 4.97 -6.93 4.97 -14 8 C-11.88132873 7.47033218 -9.76382136 6.92300257 -7.6875 6.24609375 C5.93748438 2.14671618 20.50973087 2.81851436 34 7 C34.66 7 35.32 7 36 7 C32.04 5.35 28.08 3.7 24 2 C24 1.34 24 0.68 24 0 C32.20104762 0.60748501 40.31059851 3.07039204 47 8 C48.66015625 10.86328125 48.66015625 10.86328125 50.0625 14.3125 C50.31217529 14.92552979 50.56185059 15.53855957 50.8190918 16.17016602 C55.83334215 28.82594682 60.1772001 43.29170309 58 57 C54.18475666 63.1750805 46.74110302 66.07720216 40 68 C36.625 68.5625 36.625 68.5625 34 68 C31.5625 65.6875 31.5625 65.6875 30 63 C31.17744585 59.46766245 31.95605641 59.13691925 35.0625 57.3125 C35.79597656 56.87550781 36.52945313 56.43851563 37.28515625 55.98828125 C37.85105469 55.66214844 38.41695313 55.33601563 39 55 C38.04738281 55.34933594 37.09476562 55.69867188 36.11328125 56.05859375 C34.84642221 56.51841666 33.5794913 56.97804162 32.3125 57.4375 C31.68666016 57.66759766 31.06082031 57.89769531 30.41601562 58.13476562 C17.76789839 62.70398075 4.69087732 62.05238295 -8 58 C-9.2375 57.608125 -10.475 57.21625 -11.75 56.8125 C-12.4925 56.544375 -13.235 56.27625 -14 56 C-11.44008376 58.01136276 -8.95409701 59.62845496 -6 61 C-7.07401108 63.91517292 -7.77810176 65.77810176 -10 68 C-17.66262428 68.71837103 -25.70808338 65.20902159 -31.75 60.5625 C-35.16099775 56.61821942 -34.62044552 51.78965725 -34.38671875 46.83984375 C-33.13858251 34.4467334 -29.76481365 23.42758927 -25 12 C-24.55720703 10.88044922 -24.55720703 10.88044922 -24.10546875 9.73828125 C-21.03734343 4.91384392 -14.05568313 2.0565155 -8.6875 0.625 C-5.67982966 0.11522537 -3.03396554 -0.18962285 0 0 Z " fill="#FDFBFB" transform="translate(52,30)"/>
<path d="M0 0 C2.8125 2.0625 2.8125 2.0625 5 5 C5.51521375 9.19531196 5.47609387 12.48134029 3 16 C-0.49124017 18.32749345 -1.89222251 18.50299316 -6 18 C-8.54244797 16.35084456 -9.66951539 15.02130405 -10.60546875 12.12890625 C-11.35557811 8.20011565 -11.34462036 6.55852265 -9.1875 3.0625 C-6.09815886 0.14969264 -4.22677008 -0.58978187 0 0 Z " fill="#AB210E" transform="translate(81,60)"/>
<path d="M0 0 C4.13303362 1.35262918 5.45985666 2.25211513 7.4375 6.125 C7.71808156 9.01098179 7.42259508 11.39748241 6.4375 14.125 C3.98694823 16.8478353 2.46307319 17.92488816 -1.125 18.625 C-4.33305757 17.96693691 -5.50868749 16.61891519 -7.5625 14.125 C-9.13185594 10.98628812 -8.91451103 8.58644178 -8.5625 5.125 C-5.91434712 1.27314127 -4.72054682 0.16563322 0 0 Z " fill="#AB200E" transform="translate(50.5625,59.875)"/>
<path d="M0 0 C-4.95 2.97 -4.95 2.97 -10 6 C-10.33 5.34 -10.66 4.68 -11 4 C-9.71264403 1.42528807 -8.71510189 1.29583343 -6.0625 0.3125 C-5.35222656 0.04050781 -4.64195313 -0.23148437 -3.91015625 -0.51171875 C-2 -1 -2 -1 0 0 Z " fill="#C33A21" transform="translate(93,85)"/>
<path d="M0 0 C2.97 0.99 5.94 1.98 9 3 C9 3.99 9 4.98 9 6 C5.06326356 4.68775452 2.77280706 3.08089673 0 0 Z " fill="#C54129" transform="translate(35,84)"/>
<path d="M0 0 C1.65 0 3.3 0 5 0 C5 0.66 5 1.32 5 2 C2.69 2.66 0.38 3.32 -2 4 C-1.34 2.68 -0.68 1.36 0 0 Z " fill="#E6CECF" transform="translate(47,30)"/>
</svg>
