<svg version="1.1" id="Layer_1" xmlns="http://www.w3.org/2000/svg" xmlns:xlink="http://www.w3.org/1999/xlink" x="0px" y="0px"
	 width="100%" viewBox="0 0 128 128" enable-background="new 0 0 128 128" xml:space="preserve">
<path fill="#810D0F" opacity="1.000000" stroke="none" 
	d="
M129.000000,25.000000 
	C129.000000,28.030594 129.000000,31.061188 128.531342,34.546032 
	C120.577118,35.000340 113.087997,34.864899 105.607582,35.061115 
	C102.181030,35.150993 98.771591,35.893143 95.032875,36.229218 
	C89.416176,33.385830 84.021271,31.099564 77.775787,32.470284 
	C81.140480,34.021938 84.505165,35.573589 87.869858,37.125244 
	C87.789940,37.569077 87.710030,38.012909 87.630119,38.456741 
	C72.244247,33.090088 56.865761,33.569122 41.368099,37.414886 
	C45.022121,35.726063 48.676147,34.037243 52.330173,32.348423 
	C52.106987,31.767359 51.883801,31.186296 51.660618,30.605234 
	C46.584778,32.139362 41.508934,33.673496 35.997803,35.102551 
	C33.126194,34.665253 30.693104,34.077240 28.252983,34.046448 
	C19.169907,33.931824 10.084519,34.000271 1.000000,34.000000 
	C1.000000,31.299986 1.000000,28.599974 1.468657,25.450165 
	C44.291542,25.000246 86.645775,25.000124 129.000000,25.000000 
z"/>
<path fill="#E03001" opacity="1.000000" stroke="none" 
	d="
M129.000000,120.000000 
	C129.000000,122.990059 129.000000,125.980125 129.000000,128.973984 
	C86.333328,128.977783 43.666664,128.977783 1.000000,128.977783 
	C1.000000,126.297752 1.000000,123.639931 1.468657,120.490952 
	C44.291542,119.999863 86.645775,119.999931 129.000000,120.000000 
z"/>
<path fill="#76070F" opacity="1.000000" stroke="none" 
	d="
M129.000000,24.555836 
	C86.645775,25.000124 44.291542,25.000246 1.468657,25.000185 
	C1.000000,22.629442 1.000000,20.258884 1.468657,17.444164 
	C44.291542,17.000000 86.645775,17.000000 129.000000,17.000000 
	C129.000000,19.370558 129.000000,21.741116 129.000000,24.555836 
z"/>
<path fill="#C62605" opacity="1.000000" stroke="none" 
	d="
M129.000000,92.000000 
	C129.000000,94.700050 129.000000,97.400101 128.531342,100.550079 
	C85.708458,101.000000 43.354229,101.000000 1.000000,101.000000 
	C1.000000,99.285576 1.000000,97.571159 1.468644,95.428406 
	C7.872796,94.999733 13.812106,95.118195 19.741550,94.928368 
	C21.576593,94.869621 23.384796,93.972435 25.549183,93.603775 
	C30.792137,95.432663 35.600792,97.671524 40.640488,98.492996 
	C42.348263,98.771370 44.709373,95.538338 46.563587,93.699837 
	C46.762367,93.502762 45.562580,91.895157 45.015221,90.554710 
	C45.045464,89.652069 45.072044,89.136597 45.492939,88.699188 
	C58.907745,93.117905 71.909943,92.784554 84.921753,89.010315 
	C84.960403,89.911369 84.974449,90.426613 84.691681,91.155289 
	C84.267815,92.676239 83.666626,94.181458 84.112274,95.250175 
	C85.043327,97.482948 86.391151,99.921410 89.538956,98.742981 
	C95.341072,96.570877 101.075890,94.219002 107.317276,91.955261 
	C114.863861,91.978989 121.931931,91.989494 129.000000,92.000000 
z"/>
<path fill="#D82D02" opacity="1.000000" stroke="none" 
	d="
M129.000000,119.562500 
	C86.645775,119.999931 44.291542,119.999863 1.468657,119.999893 
	C1.000000,117.958336 1.000000,115.916664 1.468657,113.437454 
	C44.291542,112.999939 86.645775,112.999969 129.000000,113.000000 
	C129.000000,115.041664 129.000000,117.083336 129.000000,119.562500 
z"/>
<path fill="#660111" opacity="1.000000" stroke="none" 
	d="
M1.000000,7.000000 
	C1.000000,5.007153 1.000000,3.014306 1.000000,1.016095 
	C43.666668,1.010730 86.333336,1.010730 129.000000,1.014840 
	C129.000000,2.679653 129.000000,4.340355 128.531342,6.500566 
	C85.708458,7.000050 43.354229,7.000025 1.000000,7.000000 
z"/>
<path fill="#D22B03" opacity="1.000000" stroke="none" 
	d="
M129.000000,112.571533 
	C86.645775,112.999969 44.291542,112.999939 1.468657,112.999954 
	C1.000000,111.285645 1.000000,109.571281 1.468657,107.428467 
	C44.291542,107.000000 86.645775,107.000000 129.000000,107.000000 
	C129.000000,108.714355 129.000000,110.428719 129.000000,112.571533 
z"/>
<path fill="#CD2803" opacity="1.000000" stroke="none" 
	d="
M129.000000,106.571533 
	C86.645775,107.000000 44.291542,107.000000 1.468657,107.000000 
	C1.000000,105.285645 1.000000,103.571281 1.000000,101.428467 
	C43.354229,101.000000 85.708458,101.000000 128.531342,101.000000 
	C129.000000,102.714355 129.000000,104.428719 129.000000,106.571533 
z"/>
<path fill="#6B0310" opacity="1.000000" stroke="none" 
	d="
M1.000000,7.399996 
	C43.354229,7.000025 85.708458,7.000050 128.531342,7.000037 
	C129.000000,8.066669 129.000000,9.133339 128.531342,10.599983 
	C85.708458,10.999971 43.354229,10.999986 1.000000,11.000000 
	C1.000000,9.933331 1.000000,8.866661 1.000000,7.399996 
z"/>
<path fill="#70050F" opacity="1.000000" stroke="none" 
	d="
M129.000000,16.600004 
	C86.645775,17.000000 44.291542,17.000000 1.468657,17.000000 
	C1.000000,15.933331 1.000000,14.866661 1.468657,13.399973 
	C44.291542,12.999969 86.645775,12.999985 129.000000,13.000000 
	C129.000000,14.066669 129.000000,15.133339 129.000000,16.600004 
z"/>
<path fill="#8B100D" opacity="1.000000" stroke="none" 
	d="
M95.354393,36.339485 
	C98.771591,35.893143 102.181030,35.150993 105.607582,35.061115 
	C113.087997,34.864899 120.577118,35.000340 128.531342,35.000141 
	C129.000000,38.692909 129.000000,42.385818 128.531372,46.539703 
	C120.024467,47.338245 111.986198,47.675816 103.681412,47.784325 
	C101.771858,43.066525 99.918091,38.729225 95.354393,36.339485 
z"/>
<path fill="#99160B" opacity="1.000000" stroke="none" 
	d="
M103.947922,48.013386 
	C111.986198,47.675816 120.024467,47.338245 128.531372,47.000336 
	C129.000000,51.024544 129.000000,55.049088 128.531723,59.537117 
	C121.406349,60.332466 114.749260,60.664333 107.920883,60.659393 
	C106.482368,56.219521 105.215141,52.116451 103.947922,48.013386 
z"/>
<path fill="#8A100E" opacity="1.000000" stroke="none" 
	d="
M1.000000,34.449982 
	C10.084519,34.000271 19.169907,33.931824 28.252983,34.046448 
	C30.693104,34.077240 33.126194,34.665253 35.788223,35.381508 
	C33.399620,38.196514 30.785307,40.627487 27.691795,43.044884 
	C18.475063,43.020874 9.737532,43.010437 1.000000,43.000000 
	C1.000000,40.299988 1.000000,37.599972 1.000000,34.449982 
z"/>
<path fill="#6D0410" opacity="1.000000" stroke="none" 
	d="
M129.000000,12.666667 
	C86.645775,12.999985 44.291542,12.999969 1.468657,12.999977 
	C1.000000,12.555555 1.000000,12.111111 1.000000,11.333333 
	C43.354229,10.999986 85.708458,10.999971 128.531342,10.999979 
	C129.000000,11.444445 129.000000,11.888889 129.000000,12.666667 
z"/>
<path fill="#A71B09" opacity="1.000000" stroke="none" 
	d="
M108.092163,60.996204 
	C114.749260,60.664333 121.406349,60.332466 128.531723,60.000298 
	C129.000000,63.692909 129.000000,67.385818 128.531891,71.539688 
	C122.112938,71.999313 116.162086,71.997978 110.102524,71.603058 
	C109.359932,67.805046 108.726051,64.400627 108.092163,60.996204 
z"/>
<path fill="#92130C" opacity="1.000000" stroke="none" 
	d="
M1.000000,43.444164 
	C9.737532,43.010437 18.475063,43.020874 27.656374,43.409496 
	C26.945753,46.602680 25.791353,49.417683 24.210417,52.061569 
	C16.189253,51.593632 8.594626,51.296818 1.000000,51.000000 
	C1.000000,48.629444 1.000000,46.258884 1.000000,43.444164 
z"/>
<path fill="#AF1E09" opacity="1.000000" stroke="none" 
	d="
M1.000000,81.000000 
	C1.000000,77.637901 1.000000,74.275795 1.468244,70.456848 
	C7.945451,69.999367 13.954415,69.998734 20.004562,70.419899 
	C19.634119,74.226540 19.222488,77.611382 18.354778,80.996979 
	C12.265797,80.998497 6.632898,80.999252 1.000000,81.000000 
z"/>
<path fill="#A41A0B" opacity="1.000000" stroke="none" 
	d="
M19.963379,69.998100 
	C13.954415,69.998734 7.945451,69.999367 1.468244,70.000000 
	C1.000000,66.969406 1.000000,63.938816 1.468555,60.454109 
	C8.654086,60.000675 15.371063,60.001354 22.106682,60.404770 
	C21.404675,63.871040 20.684027,66.934570 19.963379,69.998100 
z"/>
<path fill="#9A160B" opacity="1.000000" stroke="none" 
	d="
M22.088039,60.002029 
	C15.371063,60.001354 8.654086,60.000675 1.468555,60.000000 
	C1.000000,57.299988 1.000000,54.599972 1.000000,51.449982 
	C8.594626,51.296818 16.189253,51.593632 24.150414,52.439049 
	C23.707310,55.325775 22.897673,57.663902 22.088039,60.002029 
z"/>
<path fill="#BA2207" opacity="1.000000" stroke="none" 
	d="
M129.000000,91.545891 
	C121.931931,91.989494 114.863861,91.978989 107.467865,91.635956 
	C110.264771,88.977394 111.652100,85.876686 111.739548,81.996231 
	C117.792885,81.997734 123.396439,81.998871 129.000000,82.000000 
	C129.000000,85.030594 129.000000,88.061188 129.000000,91.545891 
z"/>
<path fill="#B12009" opacity="1.000000" stroke="none" 
	d="
M129.000000,81.545891 
	C123.396439,81.998871 117.792885,81.997734 111.622284,81.581322 
	C110.773911,78.109573 110.492584,75.053108 110.211243,71.996635 
	C116.162086,71.997978 122.112938,71.999313 128.531891,72.000320 
	C129.000000,75.030594 129.000000,78.061188 129.000000,81.545891 
z"/>
<path fill="#BA2207" opacity="1.000000" stroke="none" 
	d="
M1.000000,81.449982 
	C6.632898,80.999252 12.265797,80.998497 18.398851,81.425926 
	C19.546442,84.433578 20.193878,87.013046 20.326073,89.676788 
	C13.540554,89.840706 7.270277,89.920357 1.000000,90.000000 
	C1.000000,87.299988 1.000000,84.599968 1.000000,81.449982 
z"/>
<path fill="#C22507" opacity="1.000000" stroke="none" 
	d="
M1.000000,90.416664 
	C7.270277,89.920357 13.540554,89.840706 20.558687,89.850655 
	C22.606125,91.113213 23.905704,92.286171 25.205288,93.459129 
	C23.384796,93.972435 21.576593,94.869621 19.741550,94.928368 
	C13.812106,95.118195 7.872796,94.999733 1.468644,95.000031 
	C1.000000,93.611107 1.000000,92.222221 1.000000,90.416664 
z"/>
<path fill="#FEFCFC" opacity="1.000000" stroke="none" 
	d="
M25.549181,93.603775 
	C23.905704,92.286171 22.606125,91.113213 21.073929,89.766388 
	C20.193878,87.013046 19.546442,84.433578 18.854935,81.425171 
	C19.222488,77.611382 19.634119,74.226540 20.004562,70.419899 
	C20.684027,66.934570 21.404675,63.871040 22.106682,60.404770 
	C22.897673,57.663902 23.707310,55.325775 24.576950,52.610168 
	C25.791353,49.417683 26.945753,46.602680 28.135574,43.423073 
	C30.785307,40.627487 33.399620,38.196514 36.223511,35.486584 
	C41.508934,33.673496 46.584778,32.139362 51.660618,30.605234 
	C51.883801,31.186296 52.106987,31.767359 52.330173,32.348423 
	C48.676147,34.037243 45.022121,35.726063 41.368099,37.414886 
	C56.865761,33.569122 72.244247,33.090088 87.630119,38.456741 
	C87.710030,38.012909 87.789940,37.569077 87.869858,37.125244 
	C84.505165,35.573589 81.140480,34.021938 77.775787,32.470284 
	C84.021271,31.099564 89.416176,33.385830 95.032875,36.229218 
	C99.918091,38.729225 101.771858,43.066525 103.681412,47.784325 
	C105.215141,52.116451 106.482368,56.219521 107.920883,60.659393 
	C108.726051,64.400627 109.359932,67.805046 110.102531,71.603058 
	C110.492584,75.053108 110.773911,78.109573 111.172508,81.580963 
	C111.652100,85.876686 110.264771,88.977394 106.989342,91.622734 
	C101.075890,94.219002 95.341072,96.570877 89.538956,98.742981 
	C86.391151,99.921410 85.043327,97.482948 84.112274,95.250175 
	C83.666626,94.181458 84.267815,92.676239 85.045898,91.149658 
	C88.170044,89.376663 90.643181,87.822723 93.116310,86.268784 
	C92.236359,85.460770 91.914665,85.428879 91.658592,85.543549 
	C89.398155,86.555740 87.149376,87.593971 84.897148,88.624504 
	C71.909943,92.784554 58.907745,93.117905 45.247993,88.467087 
	C41.954472,87.084839 39.300209,86.012772 36.645943,84.940697 
	C36.460453,85.300117 36.274960,85.659538 36.089466,86.018959 
	C39.063499,87.659927 42.037533,89.300896 45.011566,90.941864 
	C45.562580,91.895157 46.762367,93.502762 46.563587,93.699837 
	C44.709373,95.538338 42.348263,98.771370 40.640488,98.492996 
	C35.600792,97.671524 30.792137,95.432663 25.549181,93.603775 
M43.474178,73.587143 
	C46.590519,78.557518 49.653355,80.026024 53.499561,78.393890 
	C57.574619,76.664658 59.993889,71.891075 58.663395,67.727005 
	C57.389107,63.738842 54.730820,61.099567 50.303337,61.254158 
	C46.182030,61.398056 42.934853,65.552765 42.861263,70.372032 
	C42.848740,71.192276 43.064594,72.015999 43.474178,73.587143 
M84.303032,76.814972 
	C84.896942,76.023849 85.625366,75.300232 86.062073,74.430206 
	C88.248909,70.073410 87.036171,65.014771 83.175407,62.519295 
	C79.737373,60.297062 76.535248,60.907867 73.706863,63.695255 
	C70.399696,66.954483 70.091515,71.720375 72.862755,75.479759 
	C75.700241,79.329002 78.822945,79.855400 84.303032,76.814972 
z"/>
<path fill="#C4361B" opacity="1.000000" stroke="none" 
	d="
M45.015224,90.554703 
	C42.037533,89.300896 39.063499,87.659927 36.089466,86.018959 
	C36.274960,85.659538 36.460453,85.300117 36.645943,84.940697 
	C39.300209,86.012772 41.954472,87.084839 44.853683,88.389008 
	C45.072044,89.136597 45.045464,89.652069 45.015224,90.554703 
z"/>
<path fill="#C4361B" opacity="1.000000" stroke="none" 
	d="
M84.921753,89.010315 
	C87.149376,87.593971 89.398155,86.555740 91.658592,85.543549 
	C91.914665,85.428879 92.236359,85.460770 93.116310,86.268784 
	C90.643181,87.822723 88.170044,89.376663 85.342697,90.936234 
	C84.974449,90.426613 84.960403,89.911369 84.921753,89.010315 
z"/>
<path fill="#AC200E" opacity="1.000000" stroke="none" 
	d="
M43.324562,73.212631 
	C43.064594,72.015999 42.848740,71.192276 42.861263,70.372032 
	C42.934853,65.552765 46.182030,61.398056 50.303337,61.254158 
	C54.730820,61.099567 57.389107,63.738842 58.663395,67.727005 
	C59.993889,71.891075 57.574619,76.664658 53.499561,78.393890 
	C49.653355,80.026024 46.590519,78.557518 43.324562,73.212631 
z"/>
<path fill="#AC210E" opacity="1.000000" stroke="none" 
	d="
M84.001678,77.060806 
	C78.822945,79.855400 75.700241,79.329002 72.862755,75.479759 
	C70.091515,71.720375 70.399696,66.954483 73.706863,63.695255 
	C76.535248,60.907867 79.737373,60.297062 83.175407,62.519295 
	C87.036171,65.014771 88.248909,70.073410 86.062073,74.430206 
	C85.625366,75.300232 84.896942,76.023849 84.001678,77.060806 
z"/>
</svg>